<?xml version="1.0" encoding="UTF-8"?>
<!DOCTYPE svg PUBLIC "-//W3C//DTD SVG 1.1//EN" "http://www.w3.org/Graphics/SVG/1.1/DTD/svg11.dtd">
<!-- Creator: CorelDRAW X6 -->
<svg xmlns="http://www.w3.org/2000/svg" xml:space="preserve" width="210mm" height="297mm" version="1.1" style="shape-rendering:geometricPrecision; text-rendering:geometricPrecision; image-rendering:optimizeQuality; fill-rule:evenodd; clip-rule:evenodd"
viewBox="0 0 21000 29700"
 xmlns:xlink="http://www.w3.org/1999/xlink">
 <defs>
  <style type="text/css">
   <![CDATA[
    .fil1 {fill:url(#id0)}
    .fil0 {fill:url(#id1)}
   ]]>
  </style>
  <linearGradient id="id0" gradientUnits="userSpaceOnUse" x1="13096.4" y1="11966.5" x2="8741.66" y2="18025.2">
   <stop offset="0" style="stop-color:#F58634"/>
   <stop offset="1" style="stop-color:#874A4B"/>
  </linearGradient>
  <linearGradient id="id1" gradientUnits="userSpaceOnUse" xlink:href="#id0" x1="14711.1" y1="9030.97" x2="6267.12" y2="20779.2">
  </linearGradient>
 </defs>
 <g id="Camada_x0020_1">
  <metadata id="CorelCorpID_0Corel-Layer"/>
  <g id="_285299488">
   <path class="fil0" d="M10500 19081c-276,0 -474,-21 -719,-63 -96,-16 -200,-37 -300,-61 -371,-91 -734,-240 -1060,-424 -280,-158 -359,-86 -657,-2 -137,39 -244,62 -380,102l-755 208 138 -304c254,-626 558,-879 249,-1286 -39,-51 -55,-81 -87,-134 -28,-47 -55,-80 -86,-135 -684,-1233 -775,-2584 -195,-3876 119,-265 300,-593 486,-817 417,-505 651,-740 1247,-1099 907,-545 2054,-693 3087,-458 694,158 1206,454 1748,879 404,316 807,850 1051,1315 1396,2656 -502,6156 -3770,6156zm223 902l-421 0c-600,-24 -1193,-152 -1749,-378 -85,-35 -168,-68 -251,-110 -58,-29 -182,-103 -227,-105l-1664 472c-244,65 -680,231 -908,6 -189,-187 -151,-412 -55,-627 34,-76 67,-150 107,-234 38,-82 67,-152 107,-234l508 -1136c0,-48 -51,-106 -76,-144 -166,-253 -373,-733 -468,-1016 -225,-674 -258,-1073 -258,-1807 0,-706 247,-1530 481,-2005 141,-286 286,-533 461,-782 46,-65 83,-120 136,-185 316,-384 534,-608 924,-920 258,-207 654,-439 958,-586 758,-364 1429,-474 2353,-474 808,0 1741,297 2410,698 136,82 253,157 377,244 216,152 316,241 506,416 177,164 295,272 454,469 322,399 484,617 732,1133 364,758 474,1429 474,2353 0,1197 -547,2417 -1359,3293l-311 311c-591,571 -1424,1004 -2208,1201 -340,85 -686,134 -1033,148z"/>
   <path class="fil1" d="M7994 13527c0,433 13,523 195,948 50,116 102,196 159,302 58,106 111,184 179,282l415 508c167,166 63,97 340,341 408,360 688,602 1205,881 551,297 1613,699 2204,172 1154,-1029 -732,-1804 -1093,-1434 -417,428 -148,787 -1057,265 -78,-45 -174,-111 -253,-168 -309,-223 -971,-898 -971,-1175 0,-90 46,-112 91,-169 50,-63 80,-93 126,-154 65,-87 163,-233 163,-378 0,-423 -353,-1243 -862,-1243 -411,0 -842,592 -842,1023z"/>
  </g>
 </g>
</svg>
